<svg xmlns="http://www.w3.org/2000/svg" xmlns:xlink="http://www.w3.org/1999/xlink" version="1.1" x="0px" y="0px" viewBox="0 0 100 125" enable-background="new 0 0 100 100" xml:space="preserve"><path d="M30,92.5h40c12.407,0,22.5-10.093,22.5-22.5V30C92.5,17.593,82.407,7.5,70,7.5H30C17.593,7.5,7.5,17.593,7.5,30v40  C7.5,82.407,17.593,92.5,30,92.5z M12.5,30c0-9.649,7.851-17.5,17.5-17.5h40c9.649,0,17.5,7.851,17.5,17.5v40  c0,9.649-7.851,17.5-17.5,17.5H30c-9.649,0-17.5-7.851-17.5-17.5V30z"/><path d="M51.768,50l17.866,17.866c0.488,0.488,0.488,1.279,0,1.768s-1.279,0.488-1.768,0L50,51.768L32.134,69.634  c-0.488,0.488-1.279,0.488-1.768,0s-0.488-1.279,0-1.768L48.232,50L30.366,32.134c-0.488-0.488-0.488-1.279,0-1.768  s1.279-0.488,1.768,0L50,48.232l17.866-17.866c0.488-0.488,1.279-0.488,1.768,0s0.488,1.279,0,1.768L51.768,50z"/><text x="0" y="115" fill="#000000" font-size="5px" font-weight="bold" font-family="'Helvetica Neue', Helvetica, Arial-Unicode, Arial, Sans-serif">Created by Arthur Shlain</text><text x="0" y="120" fill="#000000" font-size="5px" font-weight="bold" font-family="'Helvetica Neue', Helvetica, Arial-Unicode, Arial, Sans-serif">from the Noun Project</text></svg>